<?xml version="1.0" standalone="no"?>
<!DOCTYPE svg PUBLIC "-//W3C//DTD SVG 20010904//EN"
 "http://www.w3.org/TR/2001/REC-SVG-20010904/DTD/svg10.dtd">
<svg version="1.0" xmlns="http://www.w3.org/2000/svg"
 width="96.000000pt" height="96.000000pt" viewBox="0 0 96.000000 96.000000"
 preserveAspectRatio="xMidYMid meet">

<g transform="translate(0.000000,96.000000) scale(0.100000,-0.100000)"
fill="#000000" stroke="none">
<path d="M230 737 c-115 -37 -167 -204 -102 -328 22 -43 38 -59 82 -81 51 -27
59 -28 164 -26 l111 3 0 120 0 120 -85 0 -85 0 -3 -33 c-3 -27 1 -35 18 -39
12 -3 20 -12 18 -22 -2 -12 -12 -15 -38 -13 -70 6 -104 89 -60 145 23 29 46
35 173 40 l87 3 0 -30 0 -31 16 31 c8 16 35 52 59 79 25 27 45 54 45 62 0 10
-37 13 -182 12 -103 -1 -198 -6 -218 -12z"/>
<path d="M668 706 c-97 -79 -142 -153 -136 -227 2 -42 1 -47 -9 -32 -11 14
-13 3 -13 -65 l0 -82 60 0 c57 0 60 1 60 24 l0 24 68 -24 c42 -15 89 -24 127
-23 l60 0 -70 27 c-42 17 -86 43 -112 68 -37 35 -43 46 -43 81 0 68 82 156
223 237 26 15 47 30 47 32 0 2 -47 4 -104 4 l-104 0 -54 -44z"/>
<path d="M837 228 c-21 -11 -22 -47 -3 -54 8 -3 24 -4 35 -2 16 2 18 6 10 18
-8 11 -12 12 -16 3 -7 -20 -23 -15 -23 6 0 13 8 21 23 23 17 2 18 5 6 10 -8 3
-23 2 -32 -4z"/>
<path d="M114 215 c-11 -27 4 -45 36 -45 20 0 30 5 30 15 0 8 -7 15 -16 15 -8
0 -12 -4 -9 -10 3 -5 1 -10 -4 -10 -18 0 -12 38 7 43 10 3 6 5 -11 6 -16 1
-30 -5 -33 -14z"/>
<path d="M190 201 c0 -26 3 -29 35 -29 32 0 34 2 24 20 -8 16 -8 23 2 29 8 5
9 9 4 9 -6 0 -16 -5 -23 -12 -9 -9 -12 -9 -12 0 0 7 -7 12 -15 12 -10 0 -15
-10 -15 -29z"/>
<path d="M300 201 c0 -19 6 -30 18 -33 30 -8 42 3 41 35 -2 31 -2 31 -6 4 -5
-32 -26 -31 -31 1 -5 32 -22 27 -22 -7z"/>
<path d="M381 198 c0 -26 2 -29 8 -14 7 18 8 18 14 3 12 -31 37 -20 36 16 0
25 -2 28 -8 13 -7 -18 -8 -18 -14 -3 -12 31 -37 20 -36 -15z"/>
<path d="M460 200 c0 -28 3 -30 36 -30 29 0 35 3 30 16 -3 9 -6 22 -6 30 0 9
-11 14 -30 14 -27 0 -30 -3 -30 -30z"/>
<path d="M544 216 c-11 -28 4 -48 33 -44 22 2 28 8 28 28 0 20 -6 26 -28 28
-18 2 -29 -2 -33 -12z m46 -16 c0 -11 -4 -20 -10 -20 -5 0 -10 9 -10 20 0 11
5 20 10 20 6 0 10 -9 10 -20z"/>
<path d="M633 201 c0 -22 5 -26 30 -28 24 -2 27 0 17 12 -9 11 -10 19 -1 28 8
11 5 14 -17 14 -24 0 -29 -4 -29 -26z"/>
<path d="M700 200 c0 -16 5 -30 10 -30 6 0 10 14 10 30 0 17 -4 30 -10 30 -5
0 -10 -13 -10 -30z"/>
<path d="M741 198 c0 -26 2 -29 8 -14 7 18 8 18 14 3 12 -31 37 -20 36 16 0
25 -2 28 -8 13 -7 -18 -8 -18 -14 -3 -12 31 -37 20 -36 -15z"/>
</g>
</svg>
